<svg version="1.1" xmlns="http://www.w3.org/2000/svg" x="0" y="0" viewBox="0 0 50 50" enable-background="new 0 0 50 50" xml:space="preserve"><circle fill="#fff" cx="25" cy="25" r="25"/><path fill="#343433" d="M43 16.9l-.4.2-2.2 1.1c1 2.1 1.5 4.5 1.5 7 0 9.3-7.5 16.8-16.8 16.8S8.3 34.5 8.3 25.2 15.8 8.4 25.1 8.4c1.9 0 3.8.3 5.6.9l.7-2.3.2-.5c-2-.7-4.2-1.1-6.5-1.1-10.9 0-19.7 8.9-19.7 19.7 0 10.9 8.9 19.7 19.7 19.7 10.9 0 19.7-8.9 19.7-19.7 0-2.9-.7-5.7-1.8-8.2z"/><path fill="#676767" d="M29.6 12.2c-1.4-.5-3-.8-4.6-.8-7.7 0-14 6.2-14 13.8C11 32.8 17.3 39 25 39s14-6.2 14-13.8c0-2.1-.5-4-1.3-5.8l-.4.2-2.3 1.1c.6 1.4 1 2.9 1 4.5C36 31.1 31.1 36 25 36s-11-4.8-11-10.8c0-5.9 4.9-10.8 11-10.8 1.3 0 2.4.2 3.6.6l.8-2.4.2-.4z"/><path fill="#959595" d="M25.1 30.3c-2.9 0-5.3-2.4-5.3-5.3s2.4-5.3 5.3-5.3c.6 0 1.3.1 1.8.3l1-2.7c-.9-.3-1.9-.5-2.8-.5-4.5 0-8.2 3.7-8.2 8.2 0 4.5 3.7 8.2 8.2 8.2 4.5 0 8.2-3.7 8.2-8.2 0-1.1-.2-2.2-.6-3.1L30 23.1c.2.6.4 1.2.4 1.9-.1 2.9-2.4 5.3-5.3 5.3z"/><path fill="#EE3C39" d="M29.2 20.8L44 13.7C41.8 10 38.5 7 34.6 5.2l-5.4 15.6z"/></svg>