<?xml version="1.0" encoding="utf-8"?>
<!-- Generator: Adobe Illustrator 18.1.1, SVG Export Plug-In . SVG Version: 6.00 Build 0)  -->
<!DOCTYPE svg PUBLIC "-//W3C//DTD SVG 1.1//EN" "http://www.w3.org/Graphics/SVG/1.1/DTD/svg11.dtd">
<svg version="1.1" id="Layer_1" xmlns="http://www.w3.org/2000/svg" xmlns:xlink="http://www.w3.org/1999/xlink" x="0px" y="0px"
	 viewBox="0 0 50 50" enable-background="new 0 0 50 50" xml:space="preserve">
<g>
	<circle fill="#FFFFFF" cx="25" cy="25" r="25"/>
	<g>
		<path fill="#343433" d="M43,16.9l-0.4,0.2l-2.2,1.1c1,2.1,1.5,4.5,1.5,7c0,9.3-7.5,16.8-16.8,16.8c-9.3,0-16.8-7.5-16.8-16.8
			c0-9.3,7.5-16.8,16.8-16.8c1.9,0,3.8,0.3,5.6,0.9L31.4,7l0.2-0.5c-2-0.7-4.2-1.1-6.5-1.1c-10.9,0-19.7,8.9-19.7,19.7
			c0,10.9,8.9,19.7,19.7,19.7c10.9,0,19.7-8.9,19.7-19.7C44.8,22.2,44.1,19.4,43,16.9z"/>
		<path fill="#676767" d="M29.6,12.2c-1.4-0.5-3-0.8-4.6-0.8c-7.7,0-14,6.2-14,13.8c0,7.6,6.3,13.8,14,13.8c7.7,0,14-6.2,14-13.8
			c0-2.1-0.5-4-1.3-5.8l-0.4,0.2L35,20.7c0.6,1.4,1,2.9,1,4.5c0,5.9-4.9,10.8-11,10.8c-6.1,0-11-4.8-11-10.8c0-5.9,4.9-10.8,11-10.8
			c1.3,0,2.4,0.2,3.6,0.6l0.8-2.4L29.6,12.2z"/>
		<path fill="#959595" d="M25.1,30.3c-2.9,0-5.3-2.4-5.3-5.3c0-2.9,2.4-5.3,5.3-5.3c0.6,0,1.3,0.1,1.8,0.3l1-2.7
			C27,17,26,16.8,25.1,16.8c-4.5,0-8.2,3.7-8.2,8.2c0,4.5,3.7,8.2,8.2,8.2c4.5,0,8.2-3.7,8.2-8.2h0c0-1.1-0.2-2.2-0.6-3.1L30,23.1
			c0.2,0.6,0.4,1.2,0.4,1.9C30.3,27.9,28,30.3,25.1,30.3z"/>
		<path fill="#EE3C39" d="M29.2,20.8L44,13.7c-2.2-3.7-5.5-6.7-9.4-8.5L29.2,20.8z"/>
	</g>
</g>
</svg>
